<svg width="25" height="24" viewBox="0 0 25 24" xmlns="http://www.w3.org/2000/svg">
    <path fill-rule="evenodd" clip-rule="evenodd"
          d="M2.75 18C2.75 17.5858 3.08579 17.25 3.5 17.25H21.5C21.9142 17.25 22.25 17.5858 22.25 18C22.25 18.4142 21.9142 18.75 21.5 18.75H3.5C3.08579 18.75 2.75 18.4142 2.75 18Z"/>
    <path fill-rule="evenodd" clip-rule="evenodd"
          d="M2.75 12C2.75 11.5858 3.08579 11.25 3.5 11.25H21.5C21.9142 11.25 22.25 11.5858 22.25 12C22.25 12.4142 21.9142 12.75 21.5 12.75H3.5C3.08579 12.75 2.75 12.4142 2.75 12Z"/>
    <path fill-rule="evenodd" clip-rule="evenodd"
          d="M2.75 6C2.75 5.58579 3.08579 5.25 3.5 5.25H21.5C21.9142 5.25 22.25 5.58579 22.25 6C22.25 6.41421 21.9142 6.75 21.5 6.75H3.5C3.08579 6.75 2.75 6.41421 2.75 6Z"/>
</svg>
