<svg width="24" height="24" viewBox="0 0 24 24" fill="none" xmlns="http://www.w3.org/2000/svg">
    <path fill-rule="evenodd" clip-rule="evenodd"
          d="M7.75716 6.34319C7.36663 5.95266 6.73347 5.95266 6.34294 6.34319C5.95242 6.73371 5.95242 7.36688 6.34294 7.7574L10.5856 12L6.34294 16.2427C5.95242 16.6332 5.95242 17.2664 6.34294 17.6569C6.73347 18.0474 7.36663 18.0474 7.75716 17.6569L11.9998 13.4143L16.2424 17.6569C16.633 18.0474 17.2661 18.0474 17.6567 17.6569C18.0472 17.2664 18.0472 16.6332 17.6567 16.2427L13.414 12L17.6567 7.7574C18.0472 7.36688 18.0472 6.73371 17.6567 6.34319C17.2661 5.95266 16.633 5.95266 16.2424 6.34319L11.9998 10.5858L7.75716 6.34319Z"
          fill="#000"/>
</svg>
